<mxfile host="app.diagrams.net" modified="2023-07-10T02:21:11.318Z" agent="Mozilla/5.0 (Windows NT 10.0; Win64; x64) AppleWebKit/537.36 (KHTML, like Gecko) Chrome/96.0.4664.45 Safari/537.36" version="21.6.1" etag="tEgoBlwBesJsmY43QYp-" type="github">
  <diagram name="Page-1" id="Pslp9yiOO5NDbKFN2giS">
    <mxGraphModel>
      <root>
        <mxCell id="0" />
        <mxCell id="1" parent="0" />
      </root>
    </mxGraphModel>
  </diagram>
</mxfile>
